<svg width="91" height="23" viewBox="0 0 91 23" fill="none" xmlns="http://www.w3.org/2000/svg">
<g clip-path="url(#clip0_48_3683)">
<path d="M0.649414 0.666748C3.59078 0.666748 6.41167 1.83725 8.49153 3.92075C10.5714 6.00425 11.7398 8.83008 11.7398 11.7766V22.3334C8.79848 22.3334 5.97759 21.1629 3.89773 19.0794C1.81787 16.9959 0.649414 14.1701 0.649414 11.2236V0.666748Z" fill="#780096"/>
<path d="M12.708 13.3508V7.74489C12.708 6.81506 12.8909 5.89434 13.2462 5.03533C13.6015 4.17633 14.1223 3.39587 14.7789 2.73855C15.4354 2.08124 16.2147 1.55994 17.0724 1.20446C17.9301 0.848969 18.8493 0.666253 19.7775 0.666749V6.27453C19.7775 7.20427 19.5946 8.1249 19.2393 8.9838C18.884 9.8427 18.3631 10.623 17.7066 11.2802C17.05 11.9374 16.2707 12.4585 15.413 12.8138C14.5553 13.169 13.6361 13.3515 12.708 13.3508Z" fill="#780096"/>
<path d="M12.708 14.4456H20.8101C22.8969 14.4456 24.8983 15.276 26.3739 16.7542C27.8495 18.2324 28.6785 20.2373 28.6785 22.3278H20.5764C18.4896 22.3278 16.4882 21.4973 15.0126 20.0191C13.537 18.5409 12.708 16.5361 12.708 14.4456Z" fill="#780096"/>
</g>
<path d="M52.8027 22.3333H48.2676L43.3331 14.3125L41.6453 15.5365V22.3333H37.6514V3.29688H41.6453V12.0078C41.9116 11.6345 42.1736 11.2613 42.4312 10.888C42.6889 10.5148 42.9509 10.1415 43.2172 9.76823L48.3191 3.29688H52.7511L46.1804 11.7214L52.8027 22.3333Z" fill="#780096"/>
<path d="M67.954 15.0286C67.954 16.2439 67.7908 17.3203 67.4644 18.2578C67.1466 19.1953 66.6785 19.9896 66.0601 20.6406C65.4503 21.283 64.7116 21.7691 63.8441 22.099C62.9852 22.4288 62.0146 22.5938 60.9323 22.5938C59.9188 22.5938 58.9869 22.4288 58.1366 22.099C57.2948 21.7691 56.5604 21.283 55.9334 20.6406C55.315 19.9896 54.834 19.1953 54.4905 18.2578C54.1555 17.3203 53.988 16.2439 53.988 15.0286C53.988 13.4141 54.2714 12.0469 54.8383 10.9271C55.4052 9.80729 56.2126 8.9566 57.2605 8.375C58.3083 7.7934 59.5581 7.5026 61.0096 7.5026C62.3581 7.5026 63.552 7.7934 64.5913 8.375C65.6392 8.9566 66.4595 9.80729 67.0521 10.9271C67.6534 12.0469 67.954 13.4141 67.954 15.0286ZM57.9948 15.0286C57.9948 15.9835 58.0979 16.7865 58.3041 17.4375C58.5102 18.0885 58.8323 18.579 59.2703 18.9089C59.7084 19.2387 60.2796 19.4036 60.9839 19.4036C61.6796 19.4036 62.2422 19.2387 62.6717 18.9089C63.1097 18.579 63.4275 18.0885 63.6251 17.4375C63.8312 16.7865 63.9343 15.9835 63.9343 15.0286C63.9343 14.0651 63.8312 13.2665 63.6251 12.6328C63.4275 11.9905 63.1097 11.5087 62.6717 11.1875C62.2336 10.8663 61.6624 10.7057 60.9581 10.7057C59.9188 10.7057 59.163 11.066 58.6906 11.7865C58.2268 12.5069 57.9948 13.5877 57.9948 15.0286Z" fill="#780096"/>
<path d="M79.1629 10.7578H75.7616V22.3333H71.832V10.7578H69.6675V8.84375L71.832 7.77604V6.70833C71.832 5.46701 72.0382 4.50347 72.4504 3.81771C72.8713 3.12326 73.4597 2.63715 74.2155 2.35938C74.9799 2.07292 75.8818 1.92969 76.9211 1.92969C77.6855 1.92969 78.3813 1.99479 79.0083 2.125C79.6353 2.24653 80.1463 2.38542 80.5414 2.54167L79.5365 5.45833C79.2359 5.36285 78.9095 5.27604 78.5573 5.19792C78.2052 5.11979 77.8015 5.08073 77.3463 5.08073C76.7966 5.08073 76.3929 5.25 76.1352 5.58854C75.8861 5.9184 75.7616 6.34375 75.7616 6.86458V7.77604H79.1629V10.7578ZM89.3797 10.7578H85.9784V22.3333H82.0488V10.7578H79.8844V8.84375L82.0488 7.77604V6.70833C82.0488 5.46701 82.255 4.50347 82.6673 3.81771C83.0881 3.12326 83.6765 2.63715 84.4323 2.35938C85.1968 2.07292 86.0986 1.92969 87.1379 1.92969C87.9024 1.92969 88.5981 1.99479 89.2251 2.125C89.8521 2.24653 90.3632 2.38542 90.7583 2.54167L89.7533 5.45833C89.4527 5.36285 89.1263 5.27604 88.7742 5.19792C88.422 5.11979 88.0183 5.08073 87.5631 5.08073C87.0134 5.08073 86.6097 5.25 86.352 5.58854C86.1029 5.9184 85.9784 6.34375 85.9784 6.86458V7.77604H89.3797V10.7578Z" fill="#780096"/>
<defs>
<clipPath id="clip0_48_3683">
<rect width="28.0351" height="21.6667" fill="white" transform="translate(0.649414 0.666748)"/>
</clipPath>
</defs>
</svg>
